<?xml version="1.0" encoding="utf-8"?>
<!-- Generator: Adobe Illustrator 23.0.0, SVG Export Plug-In . SVG Version: 6.00 Build 0)  -->
<svg version="1.1" id="Layer_1" xmlns="http://www.w3.org/2000/svg" xmlns:xlink="http://www.w3.org/1999/xlink" x="0px" y="0px"
	 viewBox="0 0 491.5 491.5" style="enable-background:new 0 0 491.5 491.5;" xml:space="preserve">
<style type="text/css">
	.st0{fill:none;}
</style>
<g id="Layer_x0020_1">
	<g id="_306073600">
		<path id="_306267792" d="M270.2,102.6l66.7,66.7c0.9,0.9,1.7,1.8,2.4,2.8c-4,1.9-7.7,4.5-10.9,7.7l-73.3,73.3
			c-3.2,3.2-5.8,6.9-7.7,10.9c-1-0.7-1.9-1.5-2.8-2.4l0,0L177.9,195c-0.9-0.9-1.7-1.8-2.4-2.8c4-1.9,7.7-4.5,10.9-7.7l73.3-73.3
			c3.2-3.2,5.8-6.9,7.7-10.9C268.4,100.9,269.3,101.7,270.2,102.6L270.2,102.6z"/>
		<path id="_306268176" d="M135.7,179.4L135.7,179.4c-6.3-6.3-9.4-14.6-9.4-22.8c0-8.3,3.1-16.6,9.4-22.8L209,60.4
			c6.3-6.3,14.6-9.4,22.8-9.4s16.6,3.1,22.8,9.4l0,0c6.3,6.3,9.4,14.6,9.4,22.8c0,8.3-3.1,16.6-9.4,22.8l-73.3,73.3
			c-6.3,6.3-14.6,9.4-22.8,9.4C150.2,188.9,142,185.7,135.7,179.4L135.7,179.4z"/>
		<path id="_306268320" d="M283,313.4c-8.2,0-16.5-3.1-22.8-9.4l-0.1-0.1l0,0c-6.3-6.3-9.4-14.6-9.4-22.8c0-8.3,3.1-16.6,9.4-22.8
			l73.3-73.3c6.3-6.3,14.6-9.4,22.8-9.4c8.2,0,16.4,3.1,22.7,9.3c0.1,0.1,0.2,0.2,0.3,0.3c6.2,6.3,9.3,14.5,9.3,22.7
			c0,8.3-3.1,16.6-9.4,22.8l0,0l-73.3,73.3l0,0C299.6,310.2,291.3,313.4,283,313.4L283,313.4z"/>
		<path id="_306270120" d="M223.7,250.9l-53.6,53.6l0,0c-2.8,2.8-7.3,2.8-10.1,0l0,0l-25.6-25.6l0,0c-2.8-2.8-2.8-7.3,0-10.1l0,0
			l53.5-53.5L223.7,250.9L223.7,250.9z"/>
		<path id="_306074704" d="M142.5,266.8l29.7,29.7c4.4,4.4,6.6,10.3,6.6,16.1c0,5.8-2.2,11.7-6.6,16.1l-85.4,85.4
			c-4.4,4.4-10.3,6.6-16.1,6.6c-5.8,0-11.7-2.2-16.1-6.6l-29.7-29.7c-4.4-4.4-6.6-10.2-6.6-16.1h0c0-5.8,2.2-11.7,6.6-16.1
			l85.4-85.4c4.4-4.4,10.3-6.6,16.1-6.6C132.2,260.1,138.1,262.3,142.5,266.8L142.5,266.8z"/>
		<path id="_306074248" d="M255.4,385.1h210.8c3.9,0,7.1,3.2,7.1,7.1v41.2c0,3.9-3.2,7.1-7.1,7.1H255.4c-3.9,0-7.1-3.2-7.1-7.1
			v-41.2C248.3,388.3,251.5,385.1,255.4,385.1L255.4,385.1z"/>
		<path id="_306074104" d="M284.7,378v-27c0-3.9,3.2-7.1,7.1-7.1h137.9c3.9,0,7.1,3.2,7.1,7.1v27H284.7z"/>
	</g>
</g>
<rect y="0.1" class="st0" width="491.5" height="491.5"/>
</svg>
